<?xml version="1.0" standalone="no"?><!DOCTYPE svg PUBLIC "-//W3C//DTD SVG 1.1//EN" "http://www.w3.org/Graphics/SVG/1.1/DTD/svg11.dtd"><svg t="1607775702126" class="icon" viewBox="0 0 1024 1024" version="1.1" xmlns="http://www.w3.org/2000/svg" p-id="2564" width="16" height="16" xmlns:xlink="http://www.w3.org/1999/xlink"><defs><style type="text/css"></style></defs><path d="M7.629422 340.058661s-6.973893 138.733984 33.579297 198.523496c41.483042 61.230783 118.160999 102.481362 174.812258 41.483042 51.362724-55.314597 29.162497-108.618388-18.771396-144.196868-31.38252-23.31605-77.642679-36.57807-101.725857-48.398819-54.315006-26.663519-51.351101-24.687582-87.894302-47.410851zM867.185018 340.058661s6.973893 138.733984-33.579296 198.523496c-41.483042 61.230783-118.172622 102.481362-174.823882 41.483042-51.351101-55.314597-29.150874-108.618388 18.771396-144.196868 31.38252-23.31605 77.654302-36.57807 101.725857-48.398819 54.303383-26.663519 51.362724-24.687582 87.905925-47.410851z" fill="#A4A4C1" p-id="2565"></path><path d="M413.916823 180.937662s20.096436-62.76504-86.197321-60.033598c-105.770715 2.743065-127.529262 93.740749-183.390148-36.357231C137.262476 68.100068 176.444133 55.791146 176.444133 55.791146c-0.209217-0.313825 16.586243 41.750375 31.103564 59.115369 25.570942 30.615392 57.034824-22.200227 162.421975-20.22429 43.772804 0 84.453848 22.083995 76.91042 54.954279 0 0 7.287719-21.270375 5.532622-41.297072-1.32504-15.191464-7.345834-31.150057-46.097435-31.382519-84.663065-0.569535-79.397775-5.951056-95.495845-54.95428-3.231237-5.358275 37.194098-21.979387 37.194097-21.979387s3.800772 54.152281 49.863337 51.571941c24.036686-0.511419 51.292985-2.882543 71.633508 8.136209 6.369489 3.486947 20.92168 6.160272 17.957775 40.11151-4.102974 47.062157 6.264881 77.433462 5.916186 76.085176 2.545471 9.844813-79.467514 5.00958-79.467514 5.00958z" fill="#A4A4C1" p-id="2566"></path><path d="M437.046902 126.425062c197.953961 0 358.876549 185.970488 358.87655 387.434643S635.454167 878.710556 437.500206 878.710556 79.076959 715.381975 79.076959 513.859705s160.015982-387.434642 357.969943-387.434643z" fill="#A4A4C1" p-id="2567"></path><path d="M766.865563 366.512963A408.681771 408.681771 0 0 0 675.507561 228.790193c-40.681044 3.626425-83.000953 6.253258-120.659978 6.253258-67.414302 0-117.46361-6.764677-117.463609-6.764677s-50.049308 6.764677-117.475233 6.764677c-37.775255 0-80.281135-2.638456-121.043541-6.288128A408.181975 408.181975 0 0 0 107.8094 366.478093c59.464064 26.733258 145.289444 55.175119 239.971668 54.570715 59.591918-0.371941 89.579659-10.147015 89.57966-10.147015s29.999364 9.775074 89.591282 10.147015c94.635732 0.604404 180.449489-27.872327 239.913553-54.535845z" fill="#A4A4C1" p-id="2568"></path><path d="M365.843452 284.499977c31.533621 18.213485 45.330306 53.338661 30.859478 78.4563s-51.804404 30.696754-83.349648 12.471646-45.330306-53.338661-30.859478-78.4563 51.804404-30.696754 83.349648-12.471646z" fill="#A4A4C1" p-id="2569"></path><path d="M372.224564 302.492622c21.828286 12.611124 29.708785 38.612123 19.678002 56.000363s-38.356413 23.780976-60.242815 11.181476-28.860295-39.518729-18.829511-56.848854 37.554415-22.944109 59.394324-10.332985z" fill="#A4A4C1" p-id="2570"></path><path d="M381.778798 313.72059c8.519773 7.555051 8.345426 17.760182 2.324631 24.524858s-17.004677 5.985925-24.408626 0.139478c-6.381112-5.044449-9.716958-17.562588-3.707787-24.327264s17.318502-7.892123 25.791782-0.337072z" fill="#A4A4C1" p-id="2571"></path><path d="M395.889309 317.056436L413.637867 301.039728s-25.942883-17.969398-48.177979-32.974893a314.38311 314.38311 0 0 0-46.492622-25.361725L301.241954 262.102157s21.479591 3.115006 57.46488 27.895573c9.57748 6.601952 25.117639 20.224291 37.182475 27.058706z" fill="#A4A4C1" p-id="2572"></path><path d="M512.132487 284.569716c-31.545244 18.236731-45.330306 53.466515-30.871101 78.584155s51.816027 30.754869 83.349648 12.506515 45.330306-53.466515 30.871101-78.584154-51.816027-30.754869-83.349648-12.506516z" fill="#A4A4C1" p-id="2573"></path><path d="M505.80949 302.585607c-21.839909 12.63437-29.708785 38.681862-19.678002 56.093349s38.356413 23.839092 60.231192 11.204722 28.871918-39.518729 18.841135-56.953462-37.624154-22.967355-59.394325-10.344609z" fill="#A4A4C1" p-id="2574"></path><path d="M496.197141 313.825199c-8.519773 7.566674-8.345426 17.783428-2.324631 24.559727s17.004677 5.997548 24.408626 0.151101c6.381112-5.067696 9.716958-17.597457 3.707787-24.408626s-17.260386-7.857253-25.791782-0.302202z" fill="#A4A4C1" p-id="2575"></path><path d="M482.08663 317.184291L464.338072 301.039728s25.942883-18.004268 48.177979-33.021385a314.685312 314.685312 0 0 1 46.492622-25.408218l17.702066 19.526901s-21.479591 3.115006-57.476504 27.895573c-9.542611 6.648445-25.0479 20.305653-37.147605 27.151692z" fill="#A4A4C1" p-id="2576"></path><path d="M470.7773 382.227469h-0.836867l-32.963269-40.576436-32.951646 40.576436h0.84849l32.951646 28.744063 32.951646-28.744063z" fill="#A4A4C1" p-id="2577"></path><path d="M242.928582 309.454892l-29.80177 9.926175-9.937798 29.813394-9.926175-29.813394-29.801771-9.926175 29.801771-9.937798 9.937798-29.859886 9.937798 29.813394z" fill="#A4A4C1" p-id="2578"></path><path d="M714.503247 309.454892l-29.80177 9.926175-9.926175 29.813394-9.937798-29.813394-29.790148-9.926175 29.790148-9.937798 9.937798-29.859886 9.937798 29.813394z" fill="#A4A4C1" p-id="2579"></path><path d="M437.418843 878.710556C311.702793 878.710556 201.154961 812.853757 137.157867 713.161952c33.532804-125.774166 154.913417-228.615846 299.877412-228.615845s266.937389 102.876549 300.621294 228.662338C673.636233 812.877003 563.088401 878.710556 437.418843 878.710556z" fill="#A4A4C1" p-id="2580"></path><path d="M156.766131 485.243496s-6.973893 138.745607 33.579296 198.523496C231.828469 745.044268 308.506426 786.248354 365.169309 725.284904c51.362724-55.314597 29.162497-108.618388-18.771396-144.196868-31.38252-23.31605-77.642679-36.57807-101.725857-48.398819-54.326629-26.698388-51.362724-24.757321-87.905925-47.445721zM1016.321726 485.243496s6.915778 138.745607-33.579296 198.523496C941.259388 745.044268 864.569808 786.248354 807.918548 725.284904c-51.351101-55.314597-29.150874-108.618388 18.771396-144.196868 31.38252-23.31605 77.654302-36.57807 101.725857-48.398819 54.326629-26.698388 51.362724-24.757321 87.905925-47.445721z" fill="#7678ED" p-id="2581"></path><path d="M563.053531 326.122497s20.096436-62.76504-86.197321-60.033598c-105.770715 2.743065-127.529262 93.740749-183.390148-36.35723-7.066879-16.446765 32.114779-28.744064 32.114779-28.744064-0.209217-0.313825 16.586243 41.750375 31.103564 59.115369 25.570942 30.615392 57.034824-22.200227 162.421975-20.224291 43.772804 0 84.453848 22.083995 76.91042 54.95428 0 0 7.287719-21.270375 5.532622-41.297072-1.32504-15.191464-7.345834-31.150057-46.097434-31.38252-84.663065-0.581158-79.397775-5.962679-95.507469-54.965902-3.219614-5.358275 37.194098-21.979387 37.194097-21.979387s3.800772 54.152281 49.863338 51.571941c24.036686-0.511419 51.292985-2.882543 71.633507 8.136209 6.369489 3.486947 20.92168 6.160272 17.957775 40.111509-4.102974 47.062157 6.264881 77.433462 5.916186 76.085176 2.557094 9.844813-79.455891 5.00958-79.455891 5.00958z" fill="#FCD11A" p-id="2582"></path><path d="M586.183611 271.609898c197.953961 0 358.876549 185.970488 358.876549 387.434642S784.590875 1023.930261 586.636914 1023.930261 228.213667 860.56681 228.213667 659.032917s160.015982-387.423019 357.969944-387.423019z" fill="#484499" p-id="2583"></path><path d="M916.002271 511.697798a408.681771 408.681771 0 0 0-91.369625-137.72277c-40.681044 3.626425-83.000953 6.253258-120.659977 6.253258-67.414302 0-117.46361-6.764677-117.46361-6.764676s-50.049308 6.764677-117.475233 6.764676c-37.775255 0-80.281135-2.638456-121.043541-6.288127a408.181975 408.181975 0 0 0-91.044177 137.722769c59.464064 26.733258 145.289444 55.175119 239.971668 54.628831 59.591918-0.371941 89.579659-10.147015 89.57966-10.147014s29.999364 9.775074 89.591283 10.147014c94.635732 0.546288 180.449489-27.91882 239.913552-54.593961z" fill="#FCD11A" p-id="2584"></path><path d="M514.98016 429.684813c31.533621 18.213485 45.330306 53.338661 30.859478 78.456299s-51.804404 30.696754-83.349648 12.483269-45.330306-53.338661-30.859478-78.456299 51.804404-30.708377 83.349648-12.483269z" fill="#FFFFFF" p-id="2585"></path><path d="M521.361272 447.677457c21.828286 12.611124 29.708785 38.612123 19.678003 56.000364s-38.356413 23.792599-60.242815 11.181475-28.860295-39.460613-18.829512-56.848853 37.554415-22.944109 59.394324-10.332986z" fill="#1A1A1A" p-id="2586"></path><path d="M530.915506 458.905426c8.519773 7.555051 8.345426 17.760182 2.324631 24.524858s-17.004677 5.985925-24.408626 0.151101c-6.381112-5.056073-9.716958-17.574211-3.707787-24.338888s17.260386-7.892123 25.791782-0.337071z" fill="#FFFFFF" p-id="2587"></path><path d="M545.026017 462.241271L562.762952 446.17807s-25.942883-17.969398-48.177979-32.974892a315.661657 315.661657 0 0 0-46.492622-25.361725l-17.725312 19.445539s21.479591 3.115006 57.46488 27.895573c9.600726 6.601952 25.129262 20.224291 37.194098 27.058706z" fill="#1A1A1A" p-id="2588"></path><path d="M661.269195 429.754552c-31.545244 18.248354-45.330306 53.466515-30.871101 78.584154s51.816027 30.754869 83.349648 12.506515 45.330306-53.466515 30.871101-78.584154-51.816027-30.801362-83.349648-12.506515z" fill="#FFFFFF" p-id="2589"></path><path d="M654.888083 447.770443c-21.839909 12.63437-29.708785 38.681862-19.678002 56.093348s38.356413 23.839092 60.231191 11.204722 28.871918-39.518729 18.841136-56.953462-37.612531-22.967355-59.394325-10.344608z" fill="#1A1A1A" p-id="2590"></path><path d="M645.287356 459.021657c-8.519773 7.566674-8.345426 17.783428-2.324631 24.559728s17.004677 5.997548 24.408627 0.151101c6.381112-5.067696 9.716958-17.597457 3.707787-24.408627s-17.213893-7.868876-25.791783-0.302202z" fill="#FFFFFF" p-id="2591"></path><path d="M631.223338 462.369126L613.47478 446.329171s25.942883-18.004268 48.177979-33.021384a314.685312 314.685312 0 0 1 46.492622-25.408218l17.748559 19.480408s-21.479591 3.115006-57.476504 27.895574c-9.589103 6.601952-25.129262 20.235914-37.194098 27.093575z" fill="#1A1A1A" p-id="2592"></path><path d="M619.914008 527.412304h-0.836867l-32.963269-40.576436-32.951646 40.576436h0.84849l32.951646 28.744064 32.951646-28.744064z" fill="#1A1A1A" p-id="2593"></path><path d="M392.065291 454.639728l-29.801771 9.937798-9.879682 29.80177-9.926175-29.80177-29.801771-9.937798 29.801771-9.926175L352.383838 414.946652l9.937798 29.80177z" fill="#FFFFFF" p-id="2594"></path><path d="M863.639956 454.639728l-29.801771 9.937798-9.926175 29.80177-9.937798-29.80177-29.790147-9.937798 29.790147-9.926175 9.937798-29.766901 9.926175 29.80177z" fill="#FFFFFF" p-id="2595"></path><path d="M586.555552 1024c-125.692804 0-236.263882-65.903292-300.260976-165.595096C319.839002 732.572622 441.207992 629.742565 586.171988 629.742565s266.937389 102.864926 300.621294 228.650715C822.772941 958.061839 712.225109 1024 586.555552 1024z" fill="#7678ED" p-id="2596"></path></svg>