<?xml version="1.0" standalone="no"?><!DOCTYPE svg PUBLIC "-//W3C//DTD SVG 1.1//EN" "http://www.w3.org/Graphics/SVG/1.1/DTD/svg11.dtd"><svg t="1604130777424" class="icon" viewBox="0 0 1024 1024" version="1.1" xmlns="http://www.w3.org/2000/svg" p-id="848" xmlns:xlink="http://www.w3.org/1999/xlink" width="16" height="16"><defs><style type="text/css"></style></defs><path d="M76.85 414.31s-7 140.47 34 201c42 62 119.65 103.77 177 42 52-56 29.52-110-19-146-31.78-23.6-78.62-37-103-49-55-27-52-25-89-48zM947.15 414.31s7 140.47-34 201c-42 62-119.65 103.77-177 42-52-56-29.52-110 19-146 31.78-23.6 78.62-37 103-49 55-27 52-25 89-48z" fill="#7678ED" p-id="849"></path><path d="M488.22 253.19s20.34-63.56-87.28-60.77c-107 2.77-129.12 94.9-185.68-36.82-7.15-16.65 32.52-29.1 32.52-29.1-0.21-0.32 16.79 42.27 31.49 59.85 25.92 31 57.76-22.47 164.46-20.47 44.31 0 85.51 22.32 77.86 55.64 0 0 7.39-21.54 5.61-41.81-1.35-15.39-7.44-31.54-46.68-31.81-85.71-0.58-80.38-6-96.69-55.64C380.56 86.83 421.47 70 421.47 70s3.84 54.83 50.49 52.22c24.33-0.52 51.93-2.92 72.53 8.19 6.44 3.48 21.16 6.24 18.17 40.6-4.15 47.66 6.35 78.41 6 77.05 2.6 10.04-80.44 5.13-80.44 5.13z" fill="#FCD11A" p-id="850"></path><path d="M511.64 198C712.07 198 875 386.25 875 590.28S712.52 959.73 512.1 959.73 149.19 794.32 149.19 590.28 311.22 198 511.64 198z" fill="#484499" p-id="851"></path><path d="M845.58 441.09a413.77 413.77 0 0 0-92.51-139.44c-41.16 3.68-84 6.33-122.16 6.33-68.28 0.02-118.91-6.85-118.91-6.85S461.3 308 393 308c-38.24 0-81.28-2.67-122.55-6.37a413.25 413.25 0 0 0-92.18 139.45c60.21 27 147.12 55.86 243 55.25C481.59 495.93 512 486 512 486s30.37 9.89 90.71 10.27c95.78 0.65 182.66-28.18 242.87-55.18z" fill="#FCD11A" p-id="852"></path><path d="M439.55 358.05c31.93 18.44 45.92 54 31.25 79.44s-52.46 31.08-84.39 12.64-45.93-54-31.26-79.44 52.46-31.09 84.4-12.64z" fill="#FFFFFF" p-id="853"></path><path d="M446 376.27c22.1 12.77 30.08 39.1 19.92 56.7s-38.88 24.09-61 11.32-29.23-40-19.07-57.56S423.9 363.5 446 376.27z" fill="#1A1A1A" p-id="854"></path><path d="M455.68 387.64c8.63 7.65 8.45 18 2.36 24.83s-17.23 6.06-24.68 0.15c-6.46-5.12-9.85-17.79-3.76-24.64s17.4-7.98 26.08-0.34z" fill="#FFFFFF" p-id="855"></path><path d="M470 391l18-16.26s-26.26-18.2-48.77-33.39a319.18 319.18 0 0 0-47.06-25.68l-18 19.69s21.74 3.15 58.18 28.25C442 370.3 457.75 384.1 470 391z" fill="#1A1A1A" p-id="856"></path><path d="M587.66 358.12c-31.93 18.48-45.92 54.1-31.25 79.57s52.46 31.14 84.39 12.66 45.93-54.09 31.25-79.57-52.45-31.14-84.39-12.66z" fill="#FFFFFF" p-id="857"></path><path d="M581.2 376.37c-22.11 12.79-30.08 39.16-19.92 56.79s38.88 24.13 61 11.35 29.22-40 19.07-57.65-38.04-23.28-60.15-10.49z" fill="#1A1A1A" p-id="858"></path><path d="M571.53 387.75c-8.63 7.66-8.45 18-2.36 24.88s17.23 6.07 24.68 0.15c6.46-5.13 9.85-17.82 3.76-24.68s-17.45-8-26.08-0.35z" fill="#FFFFFF" p-id="859"></path><path d="M557.24 391.14l-18-16.29s26.27-18.23 48.78-33.44a318.89 318.89 0 0 1 47.06-25.72l18 19.72s-21.74 3.16-58.19 28.3c-9.7 6.68-25.43 20.5-37.65 27.43z" fill="#1A1A1A" p-id="860"></path><path d="M545.8 457h-0.86l-33.37-41.09L478.2 457h0.86l33.37 29.1L545.8 457z" fill="#1A1A1A" p-id="861"></path><path d="M315.09 383.32l-30.17 10.06-10.05 30.18-10.06-30.18-30.17-10.06 30.17-10.06 10.06-30.18 10.06 30.18z" fill="#FFFFFF" p-id="862"></path><path d="M792.56 383.32l-30.17 10.06-10.06 30.18-10.05-30.18-30.17-10.06 30.17-10.06 10.06-30.18 10 30.18z" fill="#FFFFFF" p-id="863"></path><path d="M512 959.73c-127.26 0-239.21-66.71-304-167.66 34-127.34 156.86-231.46 303.63-231.46S781.9 664.76 816 792.12C751.18 893 639.25 959.73 512 959.73z" fill="#7678ED" p-id="864"></path></svg>