<?xml version="1.0" standalone="no"?><!DOCTYPE svg PUBLIC "-//W3C//DTD SVG 1.1//EN" "http://www.w3.org/Graphics/SVG/1.1/DTD/svg11.dtd"><svg t="1649999507501" class="icon" viewBox="0 0 1024 1024" version="1.1" xmlns="http://www.w3.org/2000/svg" p-id="3095" width="32" height="32" xmlns:xlink="http://www.w3.org/1999/xlink"><defs><style type="text/css"></style></defs><path d="M99.1 247.7h825.8c54.7 0 99.1 44.4 99.1 99.1v330.3c0 54.7-44.4 99.1-99.1 99.1H99.1c-54.7 0.1-99.1-44.3-99.1-99V346.8c0-54.7 44.4-99.1 99.1-99.1z" fill="#F75555" p-id="3096"></path><path d="M294.2 391.8c21.8 0 39.3 5.3 52.2 15.8 12.5 10.5 18.8 25.1 18.8 43.6 0 13.2-3.6 24.7-10.6 34.3-7.3 8.6-16.8 14.9-28.7 18.8 15.5 2.6 27.4 9.2 36 19.1 8.6 9.9 13.2 22.5 13.2 38.3 0 23.1-8.3 40.3-24.4 51.5-13.9 9.2-33 14.2-57.1 14.2H188.9V391.8h105.3z m-78.2 103h71.6c16.5 0 29-3.6 37.6-10.2 8.6-6.9 13.2-17.2 13.2-30.7 0-13.2-4.3-23.1-12.9-29.7-8.6-6.6-21.1-9.6-37.6-9.6h-72v80.2z m0 110h75.3c16.5 0 29.4-3.3 39.3-9.3 11.5-7.3 17.5-18.8 17.5-34s-5.3-26.4-15.2-33.7c-9.6-7.3-23.4-10.5-41.6-10.5H216v87.5zM541.6 480c12.5 16.5 19.1 40 19.8 69.7H426.8c1.3 19.1 6.3 34 15.5 44.5 9.2 10.6 22.1 15.9 38.3 15.9 13.9 0 25.4-3.6 34-10.6 7.3-5.9 12.9-14.8 17.2-26.7h26.4c-3.9 16.5-11.5 29.7-23.1 40.3-14.2 12.5-32.3 19.1-54.5 19.1-24.4 0-44.2-8.3-58.8-24.1-15.2-16.5-22.5-38.3-22.5-66 0-25.1 6.9-46.2 21.5-63 14.5-17.8 34-26.7 58.8-26.7 27.4-0.1 48.2 9.1 62 27.6z m-98 9.2c-9.2 9.9-14.5 23.1-16.2 39.9H534c-3.3-36.6-21.5-54.8-53.8-54.8-15.2 0.1-27.4 5-36.6 14.9zM638.1 456.9h42.3V479h-42.3v108.6c0 6.3 1 10.9 3.6 13.5 2.3 2.6 6.6 4.3 12.5 4.3H676v22.1h-25.8c-13.9 0-24.1-3.6-30-10.9-5.6-6.6-8.3-16.2-8.3-29V479h-34.3v-22.1h34.3v-44.3l26.1-10.9v55.2zM838.3 471.4c9.9 11.2 15.2 26.7 15.2 46.5v109.6h-24.7v-28.7c-6.6 9.2-15.5 16.8-26.1 22.8-12.5 6.9-26.7 10.5-42.6 10.5-17.2 0-30.7-4.3-40.9-12.9-10.6-8.9-15.9-20.5-15.9-34.3 0-19.5 7.6-34 23.5-43.9 13.9-9.3 33.7-14.2 59.4-14.5l40.9-0.6V517c0-28.7-14.8-42.9-44.6-42.9-12.5 0-22.8 2.3-30.7 7.6-8.9 5.3-14.5 13.5-17.2 24.5l-26.1-2c3.6-17.8 12.5-31.4 26.4-39.9 12.5-7.9 28.7-11.9 49.2-11.9 24.4-0.1 42.3 6.1 54.2 19z m-50.6 74.9c-38.3 0.7-57.4 13.2-57.4 38 0 7.9 3 14.2 9.5 19.5 6.6 5 15.2 7.6 25.7 7.6 16.2 0 30.4-5.3 42.9-15.9 12.2-10.2 18.5-22.1 18.5-35.3v-14.5l-39.2 0.6z" fill="#FFFFFF" p-id="3097"></path></svg>